<svg xmlns="http://www.w3.org/2000/svg" width="1282.8" height="446.758" viewBox="0 0 1282.8 446.758"><style>text { font-family: Inter, sans-serif; }</style><rect x="0" y="0" width="1042.8" height="446.758" fill="rgb(241, 245, 249)" /><rect x="0" y="0" width="1042.8" height="356.758" fill="rgb(248, 250, 252)" /><rect x="1042.8" y="0" width="240" height="446.758" fill="rgb(241, 245, 249)" /><line x1="1042.8" y1="0" x2="1042.8" y2="446.758" stroke="rgba(15, 23, 42, 0.12)" stroke-width="1" /><line x1="252.08268627450983" y1="292.1864162895927" x2="252.08268627450983" y2="64.57158371040722" stroke="rgba(15, 23, 42, 0.14)" stroke-width="0.4" /><text x="252.08268627450983" y="296.1864162895927" fill="rgba(15, 23, 42, 0.75)" font-size="9" text-anchor="middle" dominant-baseline="hanging">0</text><line x1="305.89233936651584" y1="292.1864162895927" x2="305.89233936651584" y2="64.57158371040722" stroke="rgba(15, 23, 42, 0.14)" stroke-width="0.4" /><line x1="359.7019924585219" y1="292.1864162895927" x2="359.7019924585219" y2="64.57158371040722" stroke="rgba(15, 23, 42, 0.14)" stroke-width="0.4" /><line x1="413.5116455505279" y1="292.1864162895927" x2="413.5116455505279" y2="64.57158371040722" stroke="rgba(15, 23, 42, 0.14)" stroke-width="0.4" /><line x1="467.3212986425339" y1="292.1864162895927" x2="467.3212986425339" y2="64.57158371040722" stroke="rgba(15, 23, 42, 0.14)" stroke-width="0.4" /><line x1="521.13095173454" y1="292.1864162895927" x2="521.13095173454" y2="64.57158371040722" stroke="rgba(15, 23, 42, 0.14)" stroke-width="0.4" /><text x="521.13095173454" y="296.1864162895927" fill="rgba(15, 23, 42, 0.75)" font-size="9" text-anchor="middle" dominant-baseline="hanging">500</text><line x1="574.940604826546" y1="292.1864162895927" x2="574.940604826546" y2="64.57158371040722" stroke="rgba(15, 23, 42, 0.14)" stroke-width="0.4" /><line x1="628.750257918552" y1="292.1864162895927" x2="628.750257918552" y2="64.57158371040722" stroke="rgba(15, 23, 42, 0.14)" stroke-width="0.4" /><line x1="682.559911010558" y1="292.1864162895927" x2="682.559911010558" y2="64.57158371040722" stroke="rgba(15, 23, 42, 0.14)" stroke-width="0.4" /><line x1="736.369564102564" y1="292.1864162895927" x2="736.369564102564" y2="64.57158371040722" stroke="rgba(15, 23, 42, 0.14)" stroke-width="0.4" /><line x1="790.1792171945701" y1="292.1864162895927" x2="790.1792171945701" y2="64.57158371040722" stroke="rgba(15, 23, 42, 0.14)" stroke-width="0.4" /><text x="790.1792171945701" y="296.1864162895927" fill="rgba(15, 23, 42, 0.75)" font-size="9" text-anchor="middle" dominant-baseline="hanging">1000</text><line x1="252.08268627450983" y1="292.1864162895927" x2="790.7173137254902" y2="292.1864162895927" stroke="rgba(15, 23, 42, 0.14)" stroke-width="0.4" /><text x="247.08268627450983" y="292.1864162895927" fill="rgba(15, 23, 42, 0.75)" font-size="9" text-anchor="end" dominant-baseline="middle">0</text><line x1="252.08268627450983" y1="238.3767631975867" x2="790.7173137254902" y2="238.3767631975867" stroke="rgba(15, 23, 42, 0.14)" stroke-width="0.4" /><line x1="252.08268627450983" y1="184.56711010558067" x2="790.7173137254902" y2="184.56711010558067" stroke="rgba(15, 23, 42, 0.14)" stroke-width="0.4" /><line x1="252.08268627450983" y1="130.75745701357465" x2="790.7173137254902" y2="130.75745701357465" stroke="rgba(15, 23, 42, 0.14)" stroke-width="0.4" /><line x1="252.08268627450983" y1="76.94780392156862" x2="790.7173137254902" y2="76.94780392156862" stroke="rgba(15, 23, 42, 0.14)" stroke-width="0.4" /><text x="521.4" y="308.1864162895927" fill="rgba(15, 23, 42, 0.55)" font-size="9" font-weight="bold" text-anchor="middle" dominant-baseline="hanging">X (cm)</text><text x="0" y="0" fill="rgba(15, 23, 42, 0.55)" font-size="9" font-weight="bold" text-anchor="middle" dominant-baseline="middle" transform="translate(224.08268627450983,178.37899999999996) rotate(-90)">Y (cm)</text><polygon points="252.08268627450983,292.1864162895927 532.9690754147813,292.1864162895927 682.559911010558,183.49091704374055 790.7173137254902,182.41472398190044 790.1792171945701,65.1096802413273 714.8457028657617,64.57158371040722 714.3076063348417,148.51464253393664 252.08268627450983,146.90035294117646" fill="none" stroke="rgb(3, 105, 161)" stroke-width="3" /><g transform="translate(278.4494162895928,265.28158974358973) rotate(0)"><line x1="0" y1="0" x2="15" y2="0" stroke="rgb(190, 24, 93)" stroke-width="2" /><polygon points="25,0 15,-5 15,5" fill="rgb(190, 24, 93)" /></g><rect x="-3.2285791855203616" y="-3.2285791855203616" width="6.457158371040723" height="6.457158371040723" fill="rgba(71, 85, 105, 0.55)" transform="translate(723.9933438914027,86.09544494720964) rotate(0)" /><rect x="-3.2285791855203616" y="-3.2285791855203616" width="6.457158371040723" height="6.457158371040723" fill="none" stroke="rgb(190, 18, 60)" stroke-width="2" transform="translate(773.4982247360483,124.30029864253392) rotate(0)" /><rect x="-3.2285791855203616" y="-3.2285791855203616" width="6.457158371040723" height="6.457158371040723" fill="rgba(71, 85, 105, 0.55)" transform="translate(771.883935143288,166.27182805429862) rotate(0)" /><rect x="-3.2285791855203616" y="-3.2285791855203616" width="6.457158371040723" height="6.457158371040723" fill="rgba(71, 85, 105, 0.55)" transform="translate(373.69250226244344,284.11496832579184) rotate(0)" /><rect x="-3.2285791855203616" y="-3.2285791855203616" width="6.457158371040723" height="6.457158371040723" fill="rgb(190, 18, 60)" transform="translate(395.21636349924586,281.9625822021116) rotate(0)" /><rect x="-3.2285791855203616" y="-3.2285791855203616" width="6.457158371040723" height="6.457158371040723" fill="rgb(190, 18, 60)" transform="translate(264.4589064856712,158.20038009049773) rotate(0)" /><rect x="-3.2285791855203616" y="-3.2285791855203616" width="6.457158371040723" height="6.457158371040723" fill="none" stroke="rgb(190, 18, 60)" stroke-width="2" transform="translate(323.6495248868779,172.72898642533934) rotate(0)" /><rect x="-3.2285791855203616" y="-3.2285791855203616" width="6.457158371040723" height="6.457158371040723" fill="none" stroke="rgb(190, 18, 60)" stroke-width="2" transform="translate(424.27357616892914,213.62432277526392) rotate(0)" /><rect x="-3.2285791855203616" y="-3.2285791855203616" width="6.457158371040723" height="6.457158371040723" fill="rgba(71, 85, 105, 0.55)" transform="translate(424.27357616892914,166.80992458521868) rotate(0)" /><rect x="-3.2285791855203616" y="-3.2285791855203616" width="6.457158371040723" height="6.457158371040723" fill="rgba(71, 85, 105, 0.55)" transform="translate(479.15942232277524,226.53863951734536) rotate(0)" /><rect x="-3.2285791855203616" y="-3.2285791855203616" width="6.457158371040723" height="6.457158371040723" fill="rgba(71, 85, 105, 0.55)" transform="translate(530.816689291101,279.2720995475113) rotate(0)" /><rect x="-3.2285791855203616" y="-3.2285791855203616" width="6.457158371040723" height="6.457158371040723" fill="rgba(71, 85, 105, 0.55)" transform="translate(532.9690754147813,225.46244645550524) rotate(0)" /><rect x="-3.2285791855203616" y="-3.2285791855203616" width="6.457158371040723" height="6.457158371040723" fill="rgba(71, 85, 105, 0.55)" transform="translate(620.1407134238311,222.2338672699849) rotate(0)" /><rect x="-3.2285791855203616" y="-3.2285791855203616" width="6.457158371040723" height="6.457158371040723" fill="rgba(71, 85, 105, 0.55)" transform="translate(594.8501764705882,157.1241870286576) rotate(0)" /><rect x="-6.457158371040723" y="-4.304772247360482" width="12.914316742081446" height="8.609544494720964" fill="rgba(71, 85, 105, 0.55)" fill-opacity="0.6" stroke="rgba(71, 85, 105, 0.55)" stroke-width="2" transform="translate(723.4552473604826,107.61930618401206) rotate(-90)" /><rect x="-6.457158371040723" y="-4.304772247360482" width="12.914316742081446" height="8.609544494720964" fill="rgb(109, 40, 217)" fill-opacity="0" stroke="rgb(109, 40, 217)" stroke-width="2" transform="translate(327.41620060331826,283.57687179487175) rotate(0)" /><rect x="-6.457158371040723" y="-4.304772247360482" width="12.914316742081446" height="8.609544494720964" fill="rgb(109, 40, 217)" fill-opacity="0.6" stroke="rgb(109, 40, 217)" stroke-width="2" transform="translate(478.0832292609351,208.78145399698337) rotate(-90)" /><rect x="-6.457158371040723" y="-4.304772247360482" width="12.914316742081446" height="8.609544494720964" fill="rgba(71, 85, 105, 0.55)" fill-opacity="0.6" stroke="rgba(71, 85, 105, 0.55)" stroke-width="2" transform="translate(595.9263695324283,238.3767631975867) rotate(-40)" /><line x1="377.8401432880845" y1="154.8146696832579" x2="387.8401432880845" y2="164.8146696832579" stroke="rgb(71, 85, 105)" stroke-width="2" /><line x1="387.8401432880845" y1="154.8146696832579" x2="377.8401432880845" y2="164.8146696832579" stroke="rgb(71, 85, 105)" stroke-width="2" /><line x1="351.4734132730015" y1="264.0482654600301" x2="361.4734132730015" y2="274.0482654600301" stroke="rgb(71, 85, 105)" stroke-width="2" /><line x1="361.4734132730015" y1="264.0482654600301" x2="351.4734132730015" y2="274.0482654600301" stroke="rgb(71, 85, 105)" stroke-width="2" /><text x="1060.8" y="32" fill="rgb(15, 23, 42)" font-size="15" font-weight="bold" text-anchor="start">DD2419 Map</text><line x1="1052.8" y1="40" x2="1272.8" y2="40" stroke="rgba(15, 23, 42, 0.12)" stroke-width="1" /><text x="1060.8" y="56" fill="rgb(100, 116, 139)" font-size="11" font-weight="normal" text-anchor="start">View</text><text x="1270.8" y="56" fill="rgb(15, 23, 42)" font-size="11" font-weight="normal" text-anchor="end">Placement Guide</text><line x1="1052.8" y1="84" x2="1272.8" y2="84" stroke="rgba(15, 23, 42, 0.12)" stroke-width="1" /><text x="1060.8" y="98" fill="rgb(2, 132, 199)" font-size="10" font-weight="bold" text-anchor="start">SETTINGS</text><text x="1060.8" y="116" fill="rgb(100, 116, 139)" font-size="11" font-weight="normal" text-anchor="start">Known Objects</text><text x="1270.8" y="116" fill="rgb(15, 23, 42)" font-size="11" font-weight="normal" text-anchor="end">2</text><text x="1060.8" y="138" fill="rgb(100, 116, 139)" font-size="11" font-weight="normal" text-anchor="start">Unknown Objects</text><text x="1270.8" y="138" fill="rgb(15, 23, 42)" font-size="11" font-weight="normal" text-anchor="end">3</text><text x="1060.8" y="160" fill="rgb(100, 116, 139)" font-size="11" font-weight="normal" text-anchor="start">Known Boxes</text><text x="1270.8" y="160" fill="rgb(15, 23, 42)" font-size="11" font-weight="normal" text-anchor="end">1</text><text x="1060.8" y="182" fill="rgb(100, 116, 139)" font-size="11" font-weight="normal" text-anchor="start">Unknown Boxes</text><text x="1270.8" y="182" fill="rgb(15, 23, 42)" font-size="11" font-weight="normal" text-anchor="end">1</text><text x="1060.8" y="204" fill="rgb(100, 116, 139)" font-size="11" font-weight="normal" text-anchor="start">Obstacles</text><text x="1270.8" y="204" fill="rgb(15, 23, 42)" font-size="11" font-weight="normal" text-anchor="end">2</text><text x="1060.8" y="226" fill="rgb(100, 116, 139)" font-size="11" font-weight="normal" text-anchor="start">Transform</text><text x="1270.8" y="226" fill="rgb(15, 23, 42)" font-size="11" font-weight="normal" text-anchor="end">None</text><text x="24" y="386.758" fill="rgb(2, 132, 199)" font-size="10" font-weight="bold" text-anchor="start">LEGEND</text><line x1="24" y1="401.258" x2="35" y2="401.258" stroke="rgb(3, 105, 161)" stroke-width="2.5" /><text x="42" y="404.758" fill="rgb(15, 23, 42)" font-size="11" font-weight="normal" text-anchor="start">Workspace</text><line x1="174" y1="401.258" x2="182" y2="401.258" stroke="rgb(190, 24, 93)" stroke-width="1.5" /><polygon points="185,401.258 180,398.258 180,404.258" fill="rgb(190, 24, 93)" /><text x="192" y="404.758" fill="rgb(15, 23, 42)" font-size="11" font-weight="normal" text-anchor="start">Start Pose</text><rect x="324" y="395.758" width="11" height="11" fill="rgb(190, 18, 60)" rx="1" /><text x="342" y="404.758" fill="rgb(15, 23, 42)" font-size="11" font-weight="normal" text-anchor="start">Known Object</text><rect x="474" y="395.758" width="11" height="11" fill="rgb(109, 40, 217)" rx="1" /><text x="492" y="404.758" fill="rgb(15, 23, 42)" font-size="11" font-weight="normal" text-anchor="start">Known Box</text><rect x="624" y="395.758" width="11" height="11" fill="none" stroke="rgb(190, 18, 60)" stroke-width="1.5" rx="1" /><text x="642" y="404.758" fill="rgb(15, 23, 42)" font-size="11" font-weight="normal" text-anchor="start">Unknown Object</text><rect x="774" y="395.758" width="11" height="11" fill="none" stroke="rgb(109, 40, 217)" stroke-width="1.5" rx="1" /><text x="792" y="404.758" fill="rgb(15, 23, 42)" font-size="11" font-weight="normal" text-anchor="start">Unknown Box</text><line x1="24" y1="417.758" x2="35" y2="428.758" stroke="rgb(71, 85, 105)" stroke-width="1.5" /><line x1="35" y1="417.758" x2="24" y2="428.758" stroke="rgb(71, 85, 105)" stroke-width="1.5" /><text x="42" y="426.758" fill="rgb(15, 23, 42)" font-size="11" font-weight="normal" text-anchor="start">Obstacle</text><rect x="174" y="417.758" width="11" height="11" fill="rgba(71, 85, 105, 0.55)" rx="1" /><text x="192" y="426.758" fill="rgb(15, 23, 42)" font-size="11" font-weight="normal" text-anchor="start">Unused</text></svg>